<?xml version="1.0" standalone="no"?>
<!DOCTYPE svg PUBLIC "-//W3C//DTD SVG 20010904//EN"
 "http://www.w3.org/TR/2001/REC-SVG-20010904/DTD/svg10.dtd">
<svg version="1.0" xmlns="http://www.w3.org/2000/svg"
 width="5732.000000pt" height="1657.000000pt" viewBox="0 0 5732.000000 1657.000000"
 preserveAspectRatio="xMidYMid meet">

<g transform="translate(0.000000,1657.000000) scale(0.100000,-0.100000)"
fill="#000000" stroke="none">
<path d="M5920 14334 c-271 -10 -569 -26 -660 -34 -357 -32 -480 -45 -695 -71
-132 -16 -283 -36 -335 -44 -52 -8 -138 -21 -190 -29 -357 -55 -808 -144
-1125 -221 -55 -13 -149 -36 -210 -50 -60 -15 -139 -35 -175 -45 -36 -10 -117
-33 -180 -50 -63 -17 -142 -40 -175 -50 -33 -10 -107 -33 -165 -50 -388 -119
-807 -266 -1130 -397 l-145 -59 2 -670 c2 -740 33 -1714 68 -2159 8 -104 19
-262 25 -350 6 -88 13 -171 15 -185 3 -14 14 -119 25 -235 54 -585 173 -1364
226 -1494 8 -19 13 -40 11 -46 -9 -22 58 -345 123 -590 23 -88 46 -173 50
-190 32 -124 119 -396 239 -745 29 -85 97 -259 131 -335 9 -22 48 -110 85
-195 61 -138 283 -588 304 -615 5 -5 20 -30 33 -55 159 -285 384 -623 606
-909 80 -103 288 -355 348 -421 290 -320 561 -587 829 -815 38 -33 76 -66 83
-73 8 -7 93 -77 190 -156 398 -322 770 -583 1274 -896 325 -201 377 -231 737
-431 l283 -158 87 44 c47 24 97 51 111 59 14 9 104 59 200 112 644 355 1376
838 1834 1209 695 563 1190 1071 1678 1720 147 197 145 211 -13 66 -295 -271
-668 -503 -1094 -678 -378 -156 -828 -262 -1285 -304 -166 -15 -672 -16 -837
-1 -157 15 -453 55 -549 76 -38 8 -107 22 -154 31 -266 54 -733 205 -978 316
-34 16 -65 29 -68 29 -10 0 -343 168 -417 211 -316 182 -474 288 -707 475
-425 340 -815 782 -1077 1219 -381 635 -594 1290 -663 2035 -14 149 -14 690 0
845 11 125 54 414 70 475 5 19 16 69 24 110 50 247 180 616 307 871 311 623
714 1112 1269 1540 92 71 304 216 385 264 28 16 58 34 67 40 106 64 402 215
518 264 497 210 978 335 1530 398 242 27 828 24 1090 -5 731 -83 1351 -269
2000 -600 548 -279 937 -564 1205 -882 154 -183 226 -313 281 -510 32 -115 34
-277 3 -376 -50 -162 -148 -294 -287 -387 -90 -60 -130 -80 -242 -116 -119
-38 -203 -51 -350 -51 -236 0 -445 54 -707 184 -524 259 -790 348 -972 325
-85 -10 -136 -35 -181 -85 -95 -109 -106 -250 -49 -634 22 -144 20 -204 -9
-268 -38 -85 -97 -132 -203 -162 -209 -58 -365 -31 -781 134 -408 162 -670
226 -927 226 -313 0 -583 -111 -802 -329 -228 -227 -383 -535 -463 -922 -40
-195 -49 -318 -43 -626 4 -243 8 -297 32 -433 46 -267 121 -524 205 -707 11
-24 20 -45 20 -49 0 -12 151 -306 186 -361 142 -224 276 -395 439 -559 219
-220 422 -367 701 -507 326 -165 624 -249 1044 -297 161 -19 571 -8 735 19
301 50 647 149 860 246 450 204 762 418 1114 760 260 253 508 577 712 932 120
208 284 576 360 808 142 433 229 868 313 1565 30 245 82 800 96 1030 5 91 15
233 20 315 34 503 77 2592 53 2616 -12 12 -98 47 -323 134 -425 162 -905 319
-1085 355 -33 7 -80 20 -105 30 -89 36 -240 79 -445 129 -116 29 -237 58 -270
66 -242 60 -649 143 -855 175 -41 7 -109 18 -150 26 -41 7 -100 16 -130 20
-30 3 -107 14 -170 24 -138 23 -497 66 -670 81 -69 6 -168 15 -220 20 -285 27
-603 40 -1125 43 -308 2 -598 2 -645 0z"/>
<path d="M15700 12971 c-101 -22 -209 -114 -258 -219 l-27 -57 0 -4900 0
-4900 32 -65 c42 -85 103 -146 183 -184 57 -27 76 -31 150 -30 153 0 267 69
332 202 l33 67 0 4915 0 4915 -34 63 c-66 121 -170 188 -302 196 -41 3 -90 1
-109 -3z"/>
<path d="M45735 12448 c-2 -7 -38 -103 -79 -213 -41 -110 -111 -299 -155 -420
-45 -121 -86 -231 -92 -245 -6 -14 -40 -104 -75 -200 -35 -96 -69 -185 -74
-198 -6 -13 -26 -67 -46 -120 -37 -99 -277 -742 -632 -1692 -110 -294 -237
-634 -281 -755 -45 -121 -86 -231 -92 -245 -6 -14 -40 -104 -75 -200 -35 -96
-69 -185 -74 -198 -6 -13 -26 -67 -46 -120 -20 -53 -86 -230 -147 -392 -60
-162 -121 -324 -134 -360 -13 -36 -30 -81 -38 -100 -8 -19 -43 -114 -79 -210
-35 -96 -88 -238 -117 -315 -28 -77 -62 -167 -74 -200 -12 -33 -46 -123 -75
-200 -29 -77 -63 -167 -75 -200 -12 -33 -38 -104 -58 -157 -21 -54 -53 -140
-72 -191 -19 -52 -52 -140 -74 -198 -22 -57 -55 -147 -75 -200 -19 -52 -53
-142 -75 -200 -22 -57 -55 -147 -75 -199 -98 -266 -199 -500 -302 -700 -88
-171 -87 -170 -170 -185 -38 -7 -150 -27 -249 -45 l-180 -32 -125 17 c-69 9
-172 23 -230 31 -58 9 -168 24 -245 34 l-140 18 -38 44 c-123 140 -303 434
-582 953 -21 39 -47 86 -58 105 -11 19 -38 69 -60 110 -22 41 -43 80 -47 85
-4 6 -19 30 -33 55 -46 83 -133 234 -207 360 -71 121 -109 187 -220 375 -29
50 -67 115 -85 145 -39 68 -178 306 -320 550 -59 102 -138 237 -175 300 -64
109 -104 177 -222 378 -107 182 -138 237 -138 248 0 6 35 25 78 42 210 84 314
133 467 220 529 301 937 746 1119 1219 45 118 91 295 108 418 16 126 16 470
-1 630 -53 499 -217 923 -488 1262 -359 448 -880 713 -1638 832 -349 55 -551
66 -1160 65 -583 -1 -1015 -14 -2160 -64 -121 -5 -369 -13 -552 -16 -290 -6
-333 -9 -339 -23 -4 -9 -9 -81 -12 -161 -4 -148 7 -230 31 -230 6 0 176 -20
377 -45 201 -25 388 -48 415 -51 28 -3 58 -8 68 -10 16 -5 17 -180 17 -3503 0
-2208 -4 -3601 -10 -3777 -14 -367 -25 -503 -42 -519 -7 -7 -51 -17 -98 -23
-47 -6 -227 -32 -400 -57 -173 -25 -334 -48 -357 -51 -23 -3 -46 -10 -51 -17
-32 -41 -39 -254 -11 -351 l11 -39 121 7 c67 3 532 9 1032 12 839 6 1635 -3
1905 -23 l87 -6 7 29 c25 114 14 368 -17 380 -7 2 -97 13 -202 24 -461 48
-744 80 -773 87 l-22 5 2 1787 3 1786 25 -1 c14 0 106 -8 205 -17 285 -26 459
-36 773 -43 l294 -7 61 -74 c34 -40 67 -73 74 -73 7 0 13 -11 13 -24 0 -14 4
-27 9 -31 33 -20 274 -405 404 -645 17 -30 104 -190 195 -355 90 -165 183
-334 205 -375 22 -41 43 -79 47 -85 4 -5 25 -41 45 -80 21 -38 131 -239 245
-445 114 -206 225 -406 245 -445 21 -38 46 -84 56 -102 10 -18 35 -63 55 -100
21 -37 153 -277 294 -533 141 -256 274 -496 295 -535 20 -38 42 -76 47 -83 8
-9 180 -12 797 -12 490 0 791 -4 797 -10 6 -6 161 -6 429 0 703 16 1415 9
1826 -16 127 -8 117 -20 126 166 6 130 -8 240 -30 240 -11 0 -89 9 -512 60
-267 32 -329 41 -348 46 -21 6 -21 4 17 109 13 39 47 133 75 210 27 77 66 185
86 240 20 55 42 118 50 140 7 22 29 85 50 140 20 55 42 118 50 140 16 50 101
286 150 420 20 55 43 118 50 140 7 22 29 85 50 140 20 55 42 118 50 140 7 22
30 85 50 140 20 55 43 118 50 140 7 22 30 85 50 140 20 55 43 118 50 140 7 22
30 85 50 140 20 55 47 129 59 165 l22 65 1437 3 c1360 2 1437 1 1445 -15 5
-10 22 -54 37 -98 15 -44 42 -120 60 -170 18 -49 60 -166 93 -260 568 -1595
715 -2002 727 -2011 8 -6 15 -26 15 -45 0 -18 7 -53 17 -77 9 -25 12 -46 7
-51 -5 -4 -81 -18 -169 -30 -88 -13 -218 -31 -290 -41 -71 -10 -197 -28 -280
-39 -82 -12 -155 -27 -162 -34 -34 -34 -43 -294 -12 -360 l13 -28 220 8 c369
13 2366 9 2645 -5 174 -10 247 -10 254 -3 14 14 22 314 10 361 -11 41 27 32
-368 80 -406 50 -499 62 -520 70 -12 5 -28 30 -42 66 -12 33 -45 122 -73 199
-29 77 -74 199 -100 270 -131 354 -155 418 -192 515 -22 58 -58 155 -80 215
-72 198 -95 258 -148 400 -28 77 -81 219 -117 315 -35 96 -113 306 -173 465
-60 160 -131 351 -158 425 -28 74 -73 196 -100 270 -28 74 -80 216 -116 315
-37 99 -73 196 -81 215 -8 19 -31 80 -50 135 -20 55 -59 160 -86 233 -140 378
-239 646 -300 810 -27 75 -57 153 -64 172 -17 40 -49 128 -107 285 -22 61 -53
144 -68 185 -15 41 -50 137 -79 213 -28 75 -73 197 -100 270 -27 72 -105 283
-174 467 -121 323 -166 446 -277 745 -28 77 -81 219 -117 315 -162 438 -216
584 -313 845 -28 77 -64 172 -79 210 l-27 70 -192 3 c-149 2 -193 0 -197 -10z
m-7912 -674 c727 -75 1168 -352 1432 -899 130 -269 195 -552 214 -923 28 -540
-82 -1004 -339 -1422 -243 -397 -723 -653 -1315 -701 -279 -22 -1188 0 -1264
32 l-23 9 5 1533 c4 1248 8 1572 21 1747 32 453 36 496 42 533 3 20 9 37 12
37 4 0 58 9 120 20 318 56 756 69 1095 34z m7842 -1084 c10 -41 23 -95 31
-120 7 -25 29 -108 49 -185 45 -169 65 -238 166 -560 86 -277 115 -364 345
-1012 30 -87 64 -183 74 -213 10 -30 30 -86 43 -125 59 -164 140 -394 157
-445 10 -30 30 -86 43 -125 42 -115 135 -382 182 -515 24 -69 53 -152 64 -184
12 -33 21 -63 21 -68 0 -4 -553 -8 -1230 -8 -1180 0 -1230 1 -1230 18 0 10 21
74 46 143 25 68 52 142 59 164 16 46 49 141 98 275 19 52 88 241 152 420 65
179 133 368 152 420 19 52 40 113 48 135 7 22 27 78 45 125 270 725 455 1280
632 1895 23 79 27 76 53 -35z"/>
<path d="M22525 12354 c-44 -2 -174 -13 -288 -24 -752 -73 -1372 -292 -1992
-703 -323 -215 -664 -524 -901 -816 -10 -13 -24 -29 -30 -35 -6 -7 -56 -70
-110 -142 -518 -683 -837 -1523 -936 -2464 -17 -167 -17 -778 0 -965 17 -175
57 -460 83 -585 11 -52 24 -116 29 -141 9 -49 58 -240 89 -354 32 -114 86
-272 136 -395 26 -63 54 -133 63 -155 17 -43 175 -357 209 -416 328 -568 719
-997 1224 -1341 589 -402 1177 -605 1964 -679 170 -16 690 -16 820 0 677 83
1281 318 1912 743 322 217 833 638 833 686 0 30 -65 167 -114 241 -41 62 -140
161 -160 161 -4 0 -72 -53 -151 -117 -161 -133 -230 -184 -362 -272 -405 -268
-900 -493 -1334 -605 -316 -81 -572 -115 -914 -123 -208 -4 -262 -2 -410 17
-241 31 -396 69 -600 147 -471 182 -916 565 -1247 1073 -245 378 -461 897
-568 1370 -55 243 -82 408 -115 685 -35 302 -46 840 -25 1167 35 535 156 1079
351 1573 60 154 214 458 300 595 303 483 655 818 1149 1093 206 114 488 208
785 259 118 20 162 22 470 22 360 0 525 -14 785 -65 115 -22 353 -83 409 -104
20 -7 74 -28 121 -45 149 -56 390 -181 423 -218 14 -17 30 -88 82 -367 15 -77
37 -194 50 -260 13 -66 36 -183 50 -260 14 -77 32 -171 40 -210 8 -38 30 -155
50 -260 61 -320 86 -449 90 -471 4 -18 17 -24 72 -35 85 -17 355 -16 473 3
l85 13 0 1060 0 1060 -200 100 c-587 294 -1222 472 -1903 536 -200 18 -623 31
-787 23z"/>
<path d="M25925 12149 c-29 -122 -18 -389 16 -389 5 0 152 -20 326 -45 175
-24 338 -47 363 -50 81 -11 83 -13 149 -128 26 -45 100 -173 221 -377 56 -96
203 -346 325 -555 122 -209 267 -456 322 -550 54 -93 141 -242 192 -330 52
-88 104 -170 117 -182 13 -12 24 -31 24 -42 0 -11 23 -56 50 -101 28 -45 50
-83 50 -85 0 -2 23 -40 50 -85 28 -45 50 -83 50 -86 0 -2 11 -21 24 -42 13
-20 56 -93 96 -162 96 -164 252 -430 357 -608 46 -78 108 -184 137 -235 29
-50 77 -132 106 -182 29 -49 76 -130 105 -180 29 -49 119 -202 199 -339 l146
-249 0 -1241 c0 -1440 -15 -2016 -52 -2051 -7 -7 -51 -17 -98 -23 -47 -6 -227
-32 -400 -57 -173 -25 -334 -48 -357 -51 -23 -3 -46 -10 -51 -17 -32 -41 -39
-254 -11 -351 l11 -39 126 6 c70 4 512 10 982 13 789 6 1541 -3 1832 -23 l96
-6 8 49 c12 71 9 304 -4 336 -9 23 -18 27 -69 33 -238 26 -779 94 -810 102
l-23 5 0 1637 0 1637 116 189 c64 105 184 300 267 435 82 135 193 315 245 400
52 85 107 175 122 200 15 25 82 135 150 245 68 110 172 281 233 380 303 497
364 596 399 647 10 15 18 30 18 32 0 3 15 30 34 59 35 55 146 235 266 432 37
61 104 171 150 245 46 74 124 202 173 284 141 236 277 430 461 661 95 118 237
285 258 303 17 14 101 32 368 82 96 18 209 40 250 49 l75 17 12 44 c22 85 11
328 -15 344 -4 2 -147 -2 -317 -10 -602 -28 -1632 -17 -2061 22 l-71 6 -11
-70 c-20 -120 -10 -320 16 -336 4 -2 102 -16 217 -30 116 -15 278 -35 360 -46
83 -10 183 -22 223 -26 40 -4 75 -11 78 -16 3 -5 -32 -73 -79 -151 -47 -78
-129 -216 -182 -307 -54 -91 -118 -198 -143 -239 -24 -41 -52 -88 -62 -106
-10 -18 -38 -65 -62 -106 -25 -41 -91 -153 -148 -249 -151 -256 -226 -383
-290 -490 -31 -52 -103 -174 -160 -270 -230 -390 -294 -497 -316 -532 -13 -21
-24 -40 -24 -42 0 -2 -24 -44 -53 -93 -51 -83 -126 -209 -492 -828 -81 -137
-171 -288 -199 -335 -28 -47 -57 -97 -65 -113 -24 -46 -16 -56 -169 208 -58
99 -112 194 -122 210 -10 17 -40 68 -67 115 -192 327 -728 1246 -783 1340 -37
63 -91 156 -120 205 -358 607 -479 847 -716 1410 -90 213 -106 255 -101 268 3
8 66 25 148 41 79 15 198 38 264 51 66 13 206 40 310 60 347 66 346 66 358 94
15 36 15 308 -1 345 -12 28 -13 28 -80 22 -116 -10 -749 -26 -1177 -29 -747
-7 -1686 12 -2007 39 -75 6 -77 6 -83 -17z"/>
<path d="M50581 12134 c-20 -68 -25 -189 -11 -268 7 -40 15 -78 19 -83 3 -5
96 -22 206 -37 110 -15 281 -38 380 -51 99 -14 207 -28 240 -32 l60 -8 3
-3575 c3 -3524 1 -3915 -29 -4149 -5 -41 -14 -78 -20 -82 -6 -4 -39 -10 -73
-13 -33 -4 -117 -16 -186 -27 -69 -10 -237 -35 -375 -54 -137 -20 -255 -37
-261 -40 -36 -12 -51 -269 -22 -350 l15 -40 389 5 c720 9 2238 4 2498 -9 183
-9 252 -9 260 -1 7 7 11 73 11 196 0 208 3 200 -80 208 -27 3 -115 13 -195 21
-344 36 -689 75 -717 82 l-23 5 0 1961 0 1960 283 -6 c155 -4 552 -12 882 -17
502 -9 602 -13 611 -25 6 -8 16 -47 23 -87 7 -40 21 -109 31 -153 11 -44 32
-145 49 -225 32 -153 128 -610 136 -647 12 -54 259 -75 372 -32 l26 10 -7 217
c-15 528 -25 1231 -21 1507 6 340 23 858 34 1015 5 58 5 108 2 112 -14 16
-161 30 -256 25 -122 -7 -144 -13 -150 -41 -13 -59 -59 -253 -80 -341 -13 -55
-37 -161 -55 -235 -117 -507 -109 -479 -144 -485 -17 -2 -368 -9 -781 -15
-412 -5 -796 -13 -852 -16 l-103 -6 0 1631 0 1631 1493 -2 1492 -3 16 -65 c16
-61 67 -256 123 -470 13 -52 45 -174 70 -270 25 -96 65 -251 89 -345 128 -491
161 -619 186 -718 16 -60 33 -113 38 -118 22 -22 168 -32 287 -19 l116 12 0
363 c0 199 -3 774 -7 1278 l-6 916 -2386 4 c-1328 3 -2539 9 -2731 15 -190 6
-461 14 -602 18 l-256 6 -11 -38z"/>
</g>
</svg>
